<svg width="45" height="56" viewBox="0 0 45 56" fill="none" xmlns="http://www.w3.org/2000/svg">
<g filter="url(#filter0_d_29_62)">
<path d="M38.8235 19.6362V17.4544H36.6471V15.2726H32.2941V13.0908H25.7647V10.909H21.4118V2.18182H19.2353V1.72059e-05H14.8824V2.18182H12.7059V21.8184H10.5294V19.6362H4V21.8184V22.9089V26.1816H6.17647V28.3634H8.35294V32.727H10.5294V37.091H12.7059V41.4546H14.8824V45.8182V48H34.4706H36.6471V41.4546H38.8235V34.9092H41V19.6362H38.8235Z" fill="white"/>
<path d="M14.8824 28.3634H12.7059V2.18184H14.8824V28.3634Z" fill="black"/>
<path d="M19.2353 2.18176H14.8824V-3.9053e-05H19.2353V2.18176Z" fill="black"/>
<path d="M21.4118 21.8184H19.2353V2.18175H21.4118V21.8184Z" fill="black"/>
<path d="M25.7647 13.0908H21.4118V10.909H25.7647V13.0908Z" fill="black"/>
<path d="M27.9412 21.8184H25.7647V15.2725H27.9412V21.8184Z" fill="black"/>
<path d="M32.2941 15.2726H25.7647V13.0908H32.2941V15.2726Z" fill="black"/>
<path d="M34.4706 23.9958H32.2941V17.4544H34.4706V23.9958Z" fill="black"/>
<path d="M36.6471 17.4543H32.2941V15.2725H36.6471V17.4543Z" fill="black"/>
<path d="M38.8235 19.6361H36.6471V17.4543H38.8235V19.6361Z" fill="black"/>
<path d="M41 34.9092H38.8235V19.6362H41V34.9092Z" fill="black"/>
<path d="M38.8235 41.4546H36.6471V34.9092H38.8235V41.4546Z" fill="black"/>
<path d="M36.6471 48H34.4706V41.4546H36.6471V48Z" fill="black"/>
<path d="M34.4706 48H14.8824V45.8182H34.4706V48Z" fill="black"/>
<path d="M12.7059 23.9998H10.5294V21.8184H12.7059V23.9998Z" fill="black"/>
<path d="M10.5294 21.8184H4V19.6361H10.5294V21.8184Z" fill="black"/>
<path d="M6.17647 26.1815H4V21.8184H6.17647V26.1815Z" fill="black"/>
<path d="M8.35294 28.3634H6.17648V26.1816H8.35294V28.3634Z" fill="black"/>
<path d="M10.5294 32.7269H8.35294V28.3633H10.5294V32.7269Z" fill="black"/>
<path d="M12.7059 37.0911H10.5294V32.727H12.7059V37.0911Z" fill="black"/>
<path d="M14.8824 41.4546H12.7059V37.091H14.8824V41.4546Z" fill="black"/>
<path d="M17.0588 45.8182H14.8824V41.4546H17.0588V45.8182Z" fill="black"/>
</g>
<defs>
<filter id="filter0_d_29_62" x="0" y="0" width="45" height="56" filterUnits="userSpaceOnUse" color-interpolation-filters="sRGB">
<feFlood flood-opacity="0" result="BackgroundImageFix"/>
<feColorMatrix in="SourceAlpha" type="matrix" values="0 0 0 0 0 0 0 0 0 0 0 0 0 0 0 0 0 0 127 0" result="hardAlpha"/>
<feOffset dy="4"/>
<feGaussianBlur stdDeviation="2"/>
<feComposite in2="hardAlpha" operator="out"/>
<feColorMatrix type="matrix" values="0 0 0 0 0 0 0 0 0 0 0 0 0 0 0 0 0 0 0.25 0"/>
<feBlend mode="normal" in2="BackgroundImageFix" result="effect1_dropShadow_29_62"/>
<feBlend mode="normal" in="SourceGraphic" in2="effect1_dropShadow_29_62" result="shape"/>
</filter>
</defs>
</svg>
