<svg width="43" height="49" viewBox="0 0 43 49" fill="none" xmlns="http://www.w3.org/2000/svg">
<path d="M23.7262 47.08L24.4216 47.4077L23.8848 47.0557L23.7262 47.08ZM12.7718 43.5847L13.1012 43.6696L13.2476 43.8881L13.1012 43.6575L12.7718 43.5847ZM26.7271 40.6477L26.7515 40.7812L26.8857 40.8297L26.7271 40.6477ZM33.0582 38.5844L33.1436 38.7179L32.9484 38.9121L33.1558 38.7179L33.0582 38.5844ZM33.5828 38.4388L33.7292 38.5359L33.7414 38.6937V38.5359L33.5828 38.4388ZM32.0457 37.9291L32.2653 38.0019L32.2531 38.3296L32.3263 38.2568L32.2531 37.9533L32.0457 37.9291ZM29.484 35.793L29.7158 35.8294L29.8134 35.9751L29.7158 35.8173L29.484 35.793ZM40.0115 34.2396L39.8529 34.3609L39.7309 34.6765L39.9017 35.4532V36.1693L39.4625 37.5528L39.121 38.0868L38.0719 39.0335L39.1576 38.0868L39.7431 37.0431L39.9383 35.9994L39.7675 34.6279L40.0115 34.2396ZM29.5084 34.543L29.9232 34.0332L30.5209 34.2153L30.2037 34.0454L29.8988 34.0211L29.5084 34.543ZM28.5569 32.9774L28.7033 33.1351L28.8375 33.0866L28.7033 33.123L28.5569 32.9774ZM20.823 29.7248L20.9937 29.834L21.2255 29.8097L20.823 29.7248ZM16.8462 29.5063L17.017 29.6884H17.1512L16.8462 29.5063ZM17.6147 29.3849L17.4683 29.5791L17.1878 29.6884L17.4683 29.5913L17.6147 29.3849ZM21.4939 28.4626L21.3475 28.5839L21.2621 28.5475L21.3475 28.5961L21.4939 28.4626ZM17.3829 27.6373L17.4805 27.8436L17.6391 27.7708L17.4805 27.8315L17.3829 27.6373ZM41.4631 27.4674L41.7071 28.0499L41.7437 28.9602L41.7925 28.2441L41.6705 27.7829L41.4631 27.4674ZM14.3333 26.9334L14.4553 27.164L14.6382 27.2368L14.3333 26.9334ZM10.0393 25.4527L9.79537 25.6348L10.1979 25.4406L10.6493 25.8896L10.6737 26.0959L10.3199 26.5329L10.6127 26.2416L10.6615 25.8896L10.4419 25.5498L10.1979 25.4284L10.0393 25.4527ZM8.53891 24.8216L8.47792 25.0522L8.30714 25.2221L8.49012 25.0522L8.53891 24.8216ZM36.8764 24.4818L38.0353 25.3435L38.5964 25.9503L38.6208 25.8411L38.5598 25.9139L38.0353 25.3313L36.8764 24.4818ZM41.6339 23.5351L41.8657 24.2997L41.8413 23.875L41.6339 23.5351ZM9.5758 21.9331L10.1735 22.4307L9.70998 21.9574L9.5758 21.9331ZM3.65945 19.4573L3.37888 19.8335L3.53746 19.7364L3.65945 19.4573ZM9.18544 18.7533L9.75878 19.1053L10.4663 19.9306L9.75878 19.0932L9.18544 18.7533ZM8.19735 18.6805L7.50202 18.9961L6.86769 19.6757L6.67252 20.0277L7.40444 19.1053L8.19735 18.6805ZM8.35593 18.632L9.05126 18.6927L8.83168 18.6077L8.35593 18.632ZM25.4829 17.8067L25.8366 17.7217L26.105 17.9159L25.8366 17.7096L25.4829 17.8067ZM12.5279 14.7483L12.4059 15.0274L12.5279 15.1973L12.6621 15.2216L12.4181 15.0274L12.5279 14.7483ZM32.2165 11.9083L32.3141 11.9326L32.3263 12.1389V11.9326L32.2165 11.9083ZM22.9699 10.6947L23.2017 10.8767L23.1041 10.719L22.9699 10.6947ZM31.3626 10.3791L31.2894 10.4398L31.3992 10.3913L31.5578 10.5248L31.57 10.8767V10.5248L31.3626 10.3791ZM35.1076 10.1849L34.705 10.5248L34.7294 10.634L34.7172 10.5248L35.1076 10.1849ZM34.2049 9.69948L34.0097 9.8694L33.7292 9.78444L34.0097 9.88153L34.2049 9.69948ZM36.2421 9.62667L36.6446 9.80871L36.7666 10.0272L36.6202 9.60239L36.2421 9.62667ZM26.2636 8.5101L26.288 8.59506H26.4953L26.2636 8.5101ZM40.3896 1.59228L40.658 1.98065L40.7434 2.4297L40.6702 1.9321L40.3896 1.59228ZM40.6702 0.924769L41.0971 1.27673L41.4387 2.05347L41.3655 2.98798L41.1215 3.66763L40.1457 5.3182L39.2673 6.41048L37.6937 8.04892L36.6568 8.98343L37.0594 9.10479L37.3888 9.65094L37.4619 10.4641L37.3644 11.2408L38.1329 11.5806L38.3646 11.8355L38.5354 12.2482L38.511 13.1584L38.1207 14.3721L37.7425 14.6269L37.5107 14.6512L37.2912 14.5056L37.34 14.6876L37.2302 14.7968L37.1448 14.7604L37.9743 16.5202L38.5842 18.2193L39.0966 19.967L39.3649 21.5083L40.0359 21.7025L41.4265 22.5278L42.1218 23.2196L42.4634 23.9235L42.4878 24.4696L42.3414 24.9308L41.9511 25.5619L41.2435 26.3023L42.1706 27.4916L42.3902 28.1227L42.4146 28.766L42.2926 29.3243L41.9755 29.9311L41.2191 30.72L41.7803 31.4482L41.9998 31.9093L42.0974 32.3705L41.9998 32.9895L41.5363 33.8391L40.8654 34.458L40.3896 34.7493L40.4872 36.0964L40.1944 37.4072L39.6089 38.3781L38.633 39.2641L38.389 39.6039L38.4134 40.5627L38.2427 41.3637L37.8035 42.6016L37.4131 43.257L36.547 44.0702L35.7907 44.3857L35.1442 44.5071L34.8514 45.2231L34.3391 45.9756L33.6926 46.5946L33.1314 46.9101L32.2531 47.2257L31.5456 47.347H30.8503L29.8744 47.1286L29.3498 47.6383L28.7399 48.0267L27.7152 48.3665L26.6905 48.4879H25.9952L24.8973 48.2694L23.9702 47.9053L23.4945 47.614L22.9577 48.0752L22.0306 48.3665L20.701 48.4636L19.5055 48.2937L18.7492 47.9781L18.3344 47.6868L17.9563 47.2863L17.4927 46.546L16.6388 46.7402H15.5775L14.5529 46.4975L13.7721 46.1091L13.4184 45.83L12.9792 45.2474L12.6865 44.3372L11.6618 44.6527L10.6005 44.677L9.74658 44.41L9.13665 44.0459L8.73409 43.6939L8.12416 42.8929L7.27025 40.7447L6.66032 40.8176L5.52584 40.7447L4.47676 40.235L3.75703 39.4461L3.53746 39.0578L3.24469 37.9655L3.22029 36.8853L3.41547 35.7688L2.73235 35.2226L2.02482 34.3245L1.46369 33.208L1.17092 32.1399L1.19532 31.3753L1.39049 30.6471L1.02453 29.9554L0.707369 28.4019L0.51219 26.3872V25.7197L0.682972 25.2343L0.51219 24.6153L0.487793 24.1177L0.634177 23.3895L1.2929 22.0788L1.70766 21.4962L2.34199 20.9258L2.22 20.4889V20.0398L2.39078 19.6514L2.14681 18.8383L1.97603 17.3576L2.09802 14.8454L2.56157 12.9035L3.07391 11.5685L3.80583 10.1607L4.56215 8.99557L5.95279 7.345L6.89209 6.45903L7.89238 5.65802L9.20984 4.78419L11.6008 3.61908L13.333 3.03653L14.6748 2.72098L17.4317 2.4297L19.8593 2.52679L21.5671 2.81807L22.9821 3.18216L24.446 3.71617L25.9098 4.39582L28.0446 3.40062L31.2406 2.11415L33.2168 1.45878L35.3394 0.900496L37.5351 0.5364L39.0112 0.487854L39.6943 0.560673L40.6702 0.924769Z" fill="#FDDCD4"/>
<path d="M26.5349 40.5344L26.5593 40.8623L26.779 41.0323L27.0597 41.008L27.4381 40.6923L27.5602 40.6437H27.7188L27.9019 40.9108L28.0972 41.0565L28.4756 41.0808L28.7197 40.9837L28.7807 41.0444L28.9028 41.3237L29.1469 41.4694H29.33L29.5009 41.348L29.5985 41.1537L29.6473 40.9351L29.6229 40.5101L29.5497 40.3644L29.4032 40.2187L29.1103 40.0487L28.8906 39.9758H28.6343L28.4146 40.0487L28.1582 39.8058L27.8409 39.6601H27.4381L26.9987 39.8787L26.7058 40.1701L26.5349 40.5344ZM24.9847 34.8516H24.8017L24.704 34.9488V35.0823L24.8505 35.2645L24.9725 35.5802V35.8352L24.8993 36.0052L24.8139 36.0902L24.5087 36.2116L24.4111 36.3088L24.3867 36.4423L24.4355 36.5273V36.6609L24.3622 36.7823L24.1059 37.0373L23.7398 37.2559L23.4346 37.353L23.2393 37.523L23.2149 37.778L23.3614 37.948L23.6299 38.0452H24.0083L24.2036 37.9966L24.643 37.778L24.8627 37.5837L25.1068 37.2437L25.2777 36.8066L25.3265 36.2845L25.4241 36.0538L25.4486 35.653L25.3997 35.3616L25.2777 35.0702L24.9847 34.8516ZM40.9499 1.0707L40.5349 0.803564L40.2419 0.682137L39.7903 0.584995L39.7049 0.536425L39.3387 0.487854H37.6421L37.459 0.536425L36.7633 0.584995L35.4939 0.827849L32.7842 1.55641L32.5279 1.67784L31.0998 2.13926L30.8679 2.26068L30.5139 2.35783L30.0623 2.57639L29.4398 2.79496L29.0615 2.98925L28.6831 3.11067L28.4268 3.25638L28.1216 3.35353L27.5724 3.62066L27.316 3.69352L26.9865 3.8878L26.7546 3.96066L26.5227 4.10637L25.9612 4.34923H25.8269L25.3021 4.0578L25.1678 4.03352L24.7162 3.79066L24.1914 3.62066L23.4468 3.30496L23.1905 3.25638L22.9098 3.13496L22.5314 3.0621L22.2995 2.96496L20.7127 2.62497L20.3588 2.60068L19.8583 2.50354L19.2602 2.47925L18.9795 2.43068L17.3561 2.4064L16.2088 2.47925L14.9394 2.64925L13.8165 2.8921L13.6578 2.96496L13.3282 3.01353L13.0231 3.13496L12.5959 3.2321L12.5349 3.28067L11.5218 3.62066L11.2411 3.76638L10.9603 3.83923L10.582 4.0578H10.5209L9.92284 4.37351L9.81299 4.3978L9.4102 4.66493L9.10506 4.81065L8.89756 4.98064L8.568 5.15064L7.83566 5.68492L7.2864 6.14634L7.05449 6.29205L6.00479 7.26347L4.85745 8.57488L4.05187 9.71629L3.9054 10.0441L3.78335 10.1534L3.58805 10.5784L3.53923 10.6148V10.6756L3.44159 10.7848L3.39276 10.967L3.31953 11.0277L3.22188 11.2827L3.14865 11.3434L3.09982 11.5498L3.00218 11.6834L2.95336 11.8898L2.80689 12.1448L2.63601 12.7398L2.48954 13.0434L2.12336 14.6948L2.09895 15.0955L2.05013 15.2291L2.02572 15.6783L1.9769 15.8848L2.00131 17.694L2.07454 17.9976V18.4226L2.12336 18.5562L2.14778 18.8597L2.34307 19.5519V19.6611L2.22101 19.9647V20.5597L2.31866 20.8997L1.83043 21.3247L1.51308 21.774L1.41543 21.859L1.17132 22.2475L1.09808 22.4297L1.00043 22.539L0.634262 23.3647L0.487793 24.0932L0.512204 24.6882L0.658674 25.1861V25.3439L0.585439 25.4289L0.512204 25.6232L0.487793 26.2668L0.536616 26.4975V27.0682L0.609851 27.396L0.683085 28.3553L0.75632 28.6346L0.829554 29.2053L0.976023 29.6546L1.00043 29.8853L1.12249 30.201L1.36661 30.6503L1.26896 30.9174L1.17132 31.5003V32.1681L1.31778 32.8238L1.5619 33.4795L1.73278 33.8438L2.02572 34.3295L2.31866 34.7423L2.97777 35.4466L3.36835 35.7502L3.24629 36.4545L3.17306 37.3287L3.19747 37.7537L3.31953 38.4094L3.53923 39.0651L3.73452 39.4294L4.02746 39.818L4.18614 39.9394L4.3204 40.1094L4.78422 40.4251L5.54098 40.7408L6.05362 40.8137H6.57846L6.76155 40.7651L7.26199 40.7408L7.42066 41.093L7.73801 42.1008L8.20183 42.9994L8.42153 43.3151L8.86094 43.8251L9.54446 44.3108L10.2036 44.5779L10.9847 44.6993H11.3387L12.0711 44.5779L12.6325 44.3593L12.6935 44.4443L12.9621 45.2093L13.2306 45.6222L13.4259 45.8408L13.5602 45.9136L13.6456 46.0107L13.9752 46.1807L14.085 46.2779L14.7929 46.5693L15.8426 46.7636L16.4895 46.7393L16.9045 46.6665L17.3073 46.545H17.5148L17.6003 46.63L17.7223 46.9336L17.9664 47.2614L17.9908 47.3464L18.4303 47.7593L18.772 47.9779L19.248 48.1479L19.3579 48.2207L20.1391 48.415H20.5174L20.7738 48.4636L21.7868 48.415L22.1896 48.2936L22.4459 48.2693L22.9586 48.075L23.1783 47.905L23.4346 47.6136L24.2158 48.0021L24.9481 48.2693L25.4119 48.3907L26.1687 48.4879L27.3282 48.4393L28.2071 48.2207L28.8662 47.9536L29.3544 47.6379L29.8548 47.1522L29.9281 47.1279L30.1356 47.1522L30.1966 47.2007L30.3797 47.225L30.4651 47.2736H30.6482L30.8069 47.3222H31.6735L32.5279 47.1522L33.2847 46.8365L33.4677 46.6907L33.8217 46.4965L34.0048 46.3022L34.2367 46.1322L34.5785 45.695L34.8226 45.3065L35.1521 44.5293L35.8235 44.3836L36.4582 44.1165L36.8976 43.8251L37.2881 43.4365L37.6055 42.9994L37.8496 42.5622L38.2158 41.5422L38.3867 40.7165L38.4355 40.1094L38.4111 39.6116L38.5087 39.4416L39.3143 38.7251L39.6316 38.3851L39.9734 37.8994L40.1687 37.5109L40.364 36.9037L40.4861 36.2723V35.2645L40.4128 34.8031L40.4983 34.6938L40.7912 34.4752L40.8766 34.4509L41.0841 34.2324L41.2672 34.1109L41.6334 33.7224L41.9996 33.0424L42.0972 32.6052V32.1802L42.024 31.8888L41.7554 31.3303L41.316 30.8324L41.2916 30.6745L41.7554 30.2253L42.0972 29.7638L42.2193 29.521L42.3901 28.9867L42.4146 28.2703L42.3413 27.8574L42.0484 27.2503L41.6822 26.7403L41.316 26.3639V26.2789L41.7066 25.8782L41.9752 25.5382L42.3413 24.9068L42.4878 24.4939V23.9232L42.2193 23.3161L42.0484 23.0732L41.6578 22.6847L40.9743 22.1747L40.6203 22.0047L40.4616 21.8833L40.3518 21.859L40.0711 21.689L39.4486 21.519L39.3875 21.4583L39.1434 20.1347L39.0946 20.0497L38.9725 19.4547L38.9237 19.394L38.8749 19.139L38.7772 18.9083L38.6552 18.3376L38.4111 17.7669L38.2402 17.1962L38.0937 16.8926V16.8076L37.8252 16.0791L37.2149 14.8041L37.3736 14.6341L37.8252 14.6098L38.1181 14.3669L38.3622 13.7598L38.5087 13.2012V13.0677L38.5575 12.9827V12.1934L38.3378 11.7563L38.1425 11.5377L37.752 11.3191L37.4102 11.2341L37.3858 11.1006L37.4834 10.5784V10.0806L37.4102 9.61915L37.2149 9.23058L37.044 9.06058L36.7267 8.92701L36.8609 8.73273L37.3858 8.31988L38.9237 6.7899L38.9969 6.65633L39.8025 5.76992L39.9246 5.53921L40.1687 5.25993L40.5105 4.71351L40.6325 4.57994L40.8278 4.20351L40.901 4.1428L41.2672 3.34138L41.3893 2.90425L41.4625 2.41854L41.4381 1.94498L41.3405 1.62927L41.0963 1.21641L40.9499 1.0707ZM8.79991 17.7426L9.11726 17.8155L9.75196 18.1797L10.35 18.7626L10.6186 18.969V19.6611L10.6674 19.9526L10.8383 20.2804V20.3411L10.9847 20.5476L11.0092 20.669L10.9603 21.4097L10.8993 21.434L10.8261 20.839L10.7772 20.7783L10.6308 20.1833L10.4843 19.8919L10.1914 19.5033L9.67873 18.9933L9.21491 18.7019L8.75109 18.5562L8.25065 18.6047L7.90889 18.7262L7.4939 18.9933L7.05449 19.4547L6.73714 19.8676L6.34656 20.6204L6.10244 21.3247L6.00479 21.7375L5.98038 22.114L5.93156 22.2232L5.95597 22.8668L6.05362 23.4739L6.15126 23.7897L6.54185 24.4939L6.93243 24.9068L7.10331 25.0282L7.54272 25.2468L7.73801 25.2953L8.21404 25.2468L8.48256 25.0282L8.5558 24.7854V24.5304L8.48256 24.3846L8.37271 24.4089L8.26286 24.5546L8.16521 24.6032L7.98213 24.6275L7.66478 24.4818L7.45728 24.2754L7.31081 24.0568L7.11552 23.6682L6.96905 22.9882V22.539L7.11552 22.1018L7.2864 21.7375L7.75022 21.0575L7.88448 20.924L8.15301 20.7783L8.39712 20.7054L8.62903 20.7297L8.64124 20.7783L8.32389 21.0575L8.20183 21.2275L8.03095 21.5675L7.95771 21.859L7.9333 22.6482L8.10418 23.3282L8.39712 23.8382L8.568 24.0082L8.71447 24.1054L8.9952 24.1782L9.34917 24.4211L9.58108 24.4454L9.67873 24.3968L9.72755 24.3239V24.1418L9.48343 23.7168L9.28814 23.1339L9.21491 22.7211V22.369L9.28814 22.1018L9.49564 21.944H9.67873L10.1303 22.4054L10.2768 22.4782L10.5209 22.5147L10.2768 23.0489L10.228 23.4739L10.2524 23.8625L10.3989 24.3725L10.5453 24.6275V24.7854L10.4721 24.9918L10.4477 25.3196L10.3378 25.4046H10.1059L9.93505 25.4775L9.49564 26.0239L9.01962 26.4975L8.64124 26.6918L8.53139 26.7889L8.18962 26.9346L7.75022 27.0075L7.22537 26.9832L6.73714 26.8132L6.4442 26.6189L6.16347 26.3639L5.602 25.6111L5.47995 25.2103L5.3823 25.0768L5.13819 24.1539L5.01613 23.2554L5.04054 22.539L5.11377 22.2354L5.13819 21.6161L5.21142 21.3247L5.26024 21.264L5.28465 21.009L5.33348 20.9483L5.57759 20.1833L5.7973 19.7461L5.84612 19.7097L5.91935 19.5033L6.432 18.7747L6.8592 18.3497L7.04228 18.2526L7.20096 18.1069L7.76242 17.7912L8.04315 17.7669L8.17742 17.7183L8.79991 17.7426ZM10.6674 15.7755L11.4241 15.1198L11.7415 14.9498L11.949 14.9012L12.0833 15.0226L12.4128 15.0469L12.5715 15.2169L12.9987 15.2655L13.2428 15.3626L13.4503 15.5448L13.5968 15.9091L13.67 16.3948L13.5968 17.0869L13.4503 17.3662L13.3282 17.7183L13.2794 17.7547L12.9621 18.3862L12.8888 18.629V18.884L12.9377 18.9812L13.0597 19.0783L13.5357 19.1026L13.6334 19.1511L13.9385 19.4304L14.0606 19.649L14.1582 19.9647L14.1338 20.7783L13.8409 21.774L13.5968 22.2961V22.454L13.7677 22.6968L14.3169 22.8182L14.5122 22.9154L14.6953 23.0732L14.9882 23.5589L15.1103 23.9475L15.1347 24.5182L15.0126 25.0039L14.5732 26.121L14.3291 26.6189V26.9467L14.3779 27.0682L14.5488 27.1896H14.8296L15.1591 27.0682L15.5131 27.0196L15.9037 27.1167L16.0745 27.2139L16.282 27.4446L16.4529 27.7603L16.5506 28.076V28.2096L16.6482 28.4403V28.6953L16.7459 29.2781L16.8435 29.4967L17.0388 29.6667L17.3439 29.6424L17.5392 29.521L17.6369 29.2781V28.7317L17.6979 28.6467L18.0641 28.4524L18.9185 28.3067L19.7363 28.2824L19.9804 28.3553L20.2367 28.586L20.7249 29.6424L20.9202 29.7881L21.201 29.8124L21.3718 29.7396L21.5427 29.5453L21.5915 29.3631L21.6892 29.2174L22.1896 28.7924L22.7511 28.5253L23.1539 28.501L23.6909 28.671L24.0205 28.9503L24.289 29.4117L24.6064 30.1767L24.8261 30.4196L24.9237 30.4681H25.2044L25.6072 30.1281L25.9734 30.031H26.3762L26.5471 30.0796L26.8156 30.2253L26.9987 30.4074L27.2428 30.7717L27.5113 31.4517L27.5602 31.7431V32.2895L27.4869 32.8117V33.3824L27.5602 33.8681L27.8043 34.6452L28.0728 35.1309L28.3657 35.5073V35.8595L28.5122 36.248L28.6587 36.418L28.8296 36.5152L29.2568 36.5395L29.5009 36.4423L29.806 36.7095L30.0013 36.8066L30.3553 36.8795L30.8069 37.0495L31.466 37.2195L32.1983 37.3166L33.3579 37.3409L33.3335 37.4016L32.9795 37.5959L32.8086 37.7902L32.7354 37.9359L32.6622 38.203L32.6866 38.628L32.5157 39.0287L32.4913 39.478L32.5645 39.7451L32.6866 39.9637L33.0039 40.2551L33.3701 40.4008L33.6264 40.3765L33.7241 40.2551V40.1458L33.6752 40.0487L33.2847 39.648L33.2114 39.4537V39.2958L33.2602 39.1987L33.6752 38.8223L33.7485 38.7009L33.7241 38.4944L33.5776 38.3973L33.3823 38.3366V38.1544L33.5654 37.9723L33.8095 37.8509L34.1269 37.7537L34.4076 37.7294L34.5296 37.6323V37.523L34.4808 37.4744L34.3099 37.4259H33.8583L33.6997 37.3287L33.8339 37.268L34.1879 37.2195L34.9446 37.0252L35.6037 36.7823L36.0309 36.5152L36.2629 36.418L36.7023 36.1266L37.337 35.5923L37.7275 35.2038L38.0693 34.7059L38.6308 34.1838L38.7772 33.9774L38.9725 33.7952L39.2167 33.3945L39.4608 33.0909L39.6316 32.7752V32.7145L39.8269 32.3381L40.0955 31.4153L40.2419 30.2496L40.2175 29.5331L40.0222 28.4646L39.7293 27.6389L39.2411 26.716L38.8505 26.1939V26.1332L39.0214 25.9996L39.2167 25.7082L39.4364 25.1011L39.5096 24.7125L39.5828 24.0325V22.8061L39.534 22.6968V22.369L39.4852 22.0775L39.5218 22.0168L39.6805 22.0654L40.5105 22.5025L40.6447 22.624L41.0475 22.8668L41.4747 23.2675L41.6944 23.5589L41.8409 23.8989V24.3725L41.67 24.7854L41.4015 25.1496L40.6691 25.8903L40.5959 26.0603L40.5715 26.2668L40.5959 26.3882L40.718 26.6068L41.3038 27.226L41.67 27.7846L41.7921 28.246V28.7439L41.7432 28.9867L41.4503 29.5453L40.6203 30.3588L40.5227 30.6017L40.5715 30.8567L41.1574 31.5488L41.4015 31.9617L41.4747 32.2045V32.6052L41.3038 33.0667L41.0353 33.4552L40.5593 33.9045L39.9368 34.2688L39.8147 34.4388L39.7659 34.5602V34.8152L39.888 35.3616L39.9124 36.1023L39.8391 36.5637L39.5706 37.3409L39.3997 37.7052L39.1312 38.0694L38.8017 38.3973L38.4477 38.6401L38.35 38.7737L38.0815 39.0044L38.0327 39.138L37.935 39.2473L37.8618 39.4901V40.5465L37.7398 41.1294L37.4956 41.9551L37.1539 42.6594L36.9098 42.9751L36.4826 43.4001L36.2873 43.5458L35.7502 43.8129L34.8104 43.9829L34.5907 44.1772L34.4686 44.5293L33.9682 44.9543L33.3091 45.3915L32.5279 45.7072L31.8932 45.8286H31.1242L30.636 45.6586L30.2088 45.3915L29.8792 45.3672L29.4887 45.4643L28.7197 46.1443L28.3291 46.3872L27.8653 46.6057L27.2306 46.7515H26.5837L26.2663 46.7029L25.3143 46.3872L24.582 45.9743L24.35 45.7679V45.44L24.2524 45.2215L24.1059 45.0515L23.8374 44.9058H23.3614L22.2751 45.5129L21.8112 45.6343H21.0179L20.4808 45.5129L20.0902 45.3429L19.6508 45.0029L19.4189 44.7236L19.2602 44.3836H19.3945L19.6508 44.4565L20.0536 44.4808L20.4198 44.4079L21.0057 44.1651L21.3718 43.8979L21.5915 43.6551L21.8601 43.2422L21.9333 42.9144L20.7616 43.5215L20.3221 43.6429L19.9194 43.6672L19.5532 43.5944L19.2847 43.4729L18.8452 43.1572L18.6133 42.9144L18.5157 42.8658H18.3814L18.2105 42.9872L18.1617 43.1086L18.1861 43.3394L18.3082 43.5822L18.2472 43.6429H18.1861L17.8322 43.8372L17.5636 43.9344L17.1975 44.0072H16.5994L16.1112 43.8615L15.5741 43.5458L15.1225 43.0479L14.854 42.5379L14.8296 42.3315L14.7319 42.0765L14.7075 41.773L14.7563 41.7608L15.0615 42.0037L15.452 42.1737L15.867 42.2465L16.4163 42.2222L16.7825 42.1008L17.2463 41.8094L17.5881 41.4208V41.1173L17.3806 41.093L16.9778 41.2144L16.5384 41.2872L16.0867 41.263L15.7206 41.1415L15.4765 40.9715L15.0004 40.4737L14.6831 39.7937V39.3687L14.6343 39.2958L14.5366 39.2473L14.3779 39.2716L14.2071 39.4416L14.1338 39.5873L14.0606 39.8787L14.085 40.328L13.7066 40.4615L13.3038 40.4858L12.9621 40.3401L12.7302 40.0366L12.6325 39.7208L12.6569 39.393L12.6081 39.2958L12.5105 39.223L12.3762 39.1987L11.949 39.393H11.4486L11.0824 39.2473L10.8505 39.0409L10.5575 38.5551L10.4355 38.0694L10.4599 37.6444L10.5331 37.2802L10.6552 37.013L10.8139 36.8552L10.8749 36.8309L10.9359 36.8916L10.9847 37.0495L11.1556 37.3409L11.3265 37.5594L11.5218 37.7294L11.888 37.9237L12.3762 38.0209L12.779 37.9966L13.0231 37.9237L13.194 37.8266L13.4625 37.5594L13.5846 37.3166V37.183L13.5113 37.0859L12.9621 37.013L12.4006 36.7945L12.0711 36.418L11.8758 35.908L11.7781 35.3495L11.8514 34.7545L12.0222 34.4509L11.9734 34.2931L11.8514 34.2202H11.6194L11.473 34.2931L11.1312 34.6573L10.9603 34.9973L10.8383 35.3616L10.7894 35.653V36.1509L10.7528 36.1873H10.643L10.2768 36.0416L10.1059 35.9202L9.72755 35.5195L9.50785 35.1552L9.38579 34.7909V33.8316L9.53226 33.2731L9.67873 32.9817L9.72755 32.9452L9.87402 32.6174L10.3134 32.1924L10.3622 32.071V31.9374L10.3134 31.8402L10.2158 31.7917H10.0327L9.67873 31.9617L9.47123 31.9374L9.25152 31.8402L8.9952 31.6095L8.87315 31.4395L8.72668 31.1481L8.65344 30.8081L8.62903 30.4074L8.67785 29.9946L8.92197 29.1931L9.11726 28.8289L9.56887 28.3553L9.77637 28.2339L10.4355 27.5296L10.7772 26.9467L10.8749 26.4732L10.9847 26.3639L11.4486 26.2182H11.8025L12.0466 26.0968V26.036L11.9978 25.9875L11.7659 25.9389L11.6194 25.866L11.4608 25.6111L11.4119 24.9918L11.4608 24.6275L11.6072 24.3239V24.0932L11.5584 24.0204L11.2777 23.9232L11.2411 23.7289L11.3143 23.4132L11.4364 23.1461L11.7781 22.7454L11.8269 22.624V22.539L11.7049 22.3204L11.8147 22.1868L11.9978 22.1625L12.1199 22.0411L12.3396 21.6283L12.4128 21.3125V20.9361L12.2419 20.4261L12.0222 20.159L11.8147 20.0618L11.6561 19.904L11.4364 19.5397L11.3631 19.2483V18.969L11.4608 18.7262L12.0711 18.2526L12.1443 18.0219L12.0466 17.8276L11.8758 17.779L11.6439 17.8276L11.3631 18.0219L11.2655 17.9612L11.2411 17.8883V17.5362L11.3143 17.2447L11.4852 16.9533L11.7293 16.7712L11.8269 16.6498L11.8025 16.5405L11.6805 16.4433L11.4241 16.5162L11.0092 16.8805L10.8383 17.1719L10.8139 17.354L10.7528 17.439H10.7162L10.582 17.2812L10.4355 16.9898L10.3867 16.7955L10.3622 16.2733L10.4355 16.0305L10.6674 15.7755ZM20.3343 11.8291V11.9141L20.1391 12.2541L19.8583 12.5577L19.3457 12.8005L19.187 12.8248L18.9429 12.7277L18.6622 12.4484L18.6377 12.3634L18.7232 12.3027L19.7485 11.9627L20.0048 11.9141L20.1635 11.8413L20.3343 11.8291ZM22.3849 11.3434L22.2873 11.5984L22.0554 11.8534L21.7868 11.9991L21.5427 12.072H21.262L21.0057 11.8777L20.6883 11.7198L20.7982 11.647L22.1896 11.3313L22.3849 11.3434ZM13.4869 14.6705L13.9141 14.3912L14.3413 14.1969L14.3779 14.1484L14.854 13.9298L14.9882 13.8327H15.0493L15.3056 13.6869L15.5375 13.6141L16.8435 13.007L17.8444 12.6427L17.9176 12.7277L18.0641 13.1527L18.357 13.4441L18.8208 13.7112L19.3091 13.8084H19.5654L20.1024 13.6869L20.3954 13.5169L20.7982 13.1041L20.969 13.1527H21.5427L21.8601 13.0798L22.2262 12.9098L22.4704 12.7398L22.9098 12.2541L23.0806 11.8898L23.1295 11.4405L23.2637 11.137L24.289 10.9427L26.2663 10.7241L27.6334 10.6513L29.867 10.6756L30.8435 10.7241L30.8801 10.7606V11.5255L30.9778 11.7927L31.1242 12.0355L31.466 12.327L31.7589 12.4484L31.9664 12.4727L32.0763 12.6427L32.3204 12.8855L32.5157 13.0312L32.7598 13.1284H33.2847L33.5532 13.0555L33.9194 12.8127L34.0414 12.667L34.0658 12.582L33.8705 12.4362L33.2724 12.242L32.9917 12.0598L32.9673 11.8777L33.0894 11.5013V11.3434L32.9917 11.1734L32.8452 11.1006H32.7598L32.4547 11.3191L32.1129 11.4891H31.9298L31.7589 11.4163L31.6491 11.2584L31.6003 11.0641V10.7848L31.9908 10.7727L32.5767 10.8698L33.187 11.0884L33.2236 11.137H33.2847L34.017 11.5255L34.078 11.5984L34.3466 11.7563L34.4442 11.9384L34.6639 12.1691L34.8104 12.4241L34.8836 12.4848L35.0057 12.7398L35.3718 13.262L36.0798 14.6098L36.2262 14.7676V14.8769L36.3971 15.1805V15.2412L37.0074 16.3705L37.1539 16.8198L37.3003 17.099L37.3248 17.2569L37.7642 18.2647L37.935 18.8354L38.0571 19.0661L38.0815 19.224L38.3012 19.7947L38.3256 20.0011L38.7162 21.3733L38.9359 22.6847V22.9882L39.0092 23.4861V24.1539L38.9359 24.8582L38.765 25.4896L38.6186 25.8296L38.5697 25.8418L38.0937 25.3561L37.2393 24.6518L36.507 24.2146L35.6037 23.8261L35.0057 23.6804L34.7249 23.5589L33.7241 23.4132L33.2847 23.3889L32.0763 23.4861L30.8557 23.8018L30.7703 23.8746L30.636 23.8989L30.0257 24.1904L29.6351 24.4332L29.2201 24.7975L29.1469 24.9432V25.0282L29.269 25.1253L29.4032 25.1011L29.806 24.8825L30.4041 24.6639L30.5139 24.5911L31.4172 24.3482L32.4425 24.2025L33.2358 24.2268L34.2611 24.3725L34.4198 24.4454H34.5541L34.7127 24.5182H34.7982L35.3718 24.7611L35.5061 24.7854L36.2384 25.1739L36.5802 25.3925L36.7389 25.5382L37.044 25.7082L37.8374 26.4975L37.9839 26.7525L38.3256 27.1775L38.765 28.0032L38.8871 28.5739L38.9847 28.8289L39.0824 29.3874L39.1312 30.2496L39.0092 31.1967L38.9359 31.306L38.8383 31.6095L38.7406 31.7552L38.1548 32.326L38.1425 32.3745L37.3858 33.0302L36.629 33.4916H36.568L36.0187 33.7588L35.3352 33.9774L34.5785 34.0988L33.5166 34.1231L32.9063 34.0502L32.1739 33.8802L31.3195 33.5645L30.4407 33.0788L30.1356 32.8238L29.7206 32.3381L29.5253 31.9495L29.3788 31.561L29.1835 30.626L28.8418 29.7517L28.6465 29.4603L28.3535 29.1689L27.8897 28.9017L27.255 28.7317L26.6081 28.756L26.1687 28.8774L25.9002 28.9989L25.6072 29.1931L25.3021 29.4846L25.1922 29.5089L24.8627 28.7803L24.6918 28.5374L24.4721 28.3189L24.1059 28.0517L23.7153 27.8574L23.1173 27.7603L22.4582 27.8817L21.9699 28.1003L21.6037 28.3432L21.3718 28.5617H21.3108L21.0301 28.0517L20.7616 27.7603L20.5174 27.5903L20.0536 27.396H19.2602L18.833 27.4932L18.0397 27.5903L17.4782 27.7846L17.3684 27.6025L17.2219 27.1775L16.8801 26.6918L16.2942 26.2789L15.5863 26.0725L15.9037 25.1253L15.9769 24.5668L15.9525 23.8018L15.684 23.0489L15.4643 22.6847L15.1225 22.3447L14.6099 22.0654L14.6587 21.7861L14.854 21.1911L14.9516 20.6326L14.9272 19.819L14.854 19.6854L14.7563 19.3333L14.5122 18.9204L14.2681 18.6533L13.9019 18.3983L14.1216 17.8883L14.3657 17.1112L14.4146 16.7955V16.1276L14.2925 15.6419L14.146 15.3262L13.9752 15.0834L13.8043 14.9134L13.5235 14.7434L13.4869 14.6705ZM35.7624 9.70415H36.0187L36.4459 9.55843L36.629 9.58272L36.6901 9.64343L36.7633 9.81343V10.5541L36.6901 11.0277L36.7145 11.5255L36.9098 11.7198L37.3614 11.817L37.5811 11.9141L37.8374 12.1448L37.8862 12.3391L37.8374 12.7884L37.4834 13.8691L37.3858 13.7841L37.3614 13.6748L37.1905 13.4805L36.9464 13.3469L36.9708 12.9462L36.922 12.752L36.7999 12.5091L36.629 12.3391L36.3483 12.1691L36.214 12.0355L36.2629 11.562L36.1652 11.1977L36.0432 10.9791L35.799 10.7606L35.2132 10.5056L35.1155 10.202L35.7624 9.70415Z" fill="#D8B4A9"/>
<path d="M26.7759 40.502L26.7515 40.7326L26.9101 40.8054L27.2883 40.3442L27.6786 40.1986L27.886 40.2229L28.1422 40.3807L28.3373 40.7083H28.5203L28.8741 40.5142L29.1303 40.5627L29.362 41.2909L29.4962 41.2666L29.5938 41.0724V40.5506L29.3498 40.235L29.0571 40.0894L28.4349 40.1622L27.8616 39.8466H27.5078L26.9955 40.1379L26.7759 40.502ZM34.0219 37.4436L33.534 37.565L33.2656 37.7106L32.9972 38.0262L32.9728 38.4267L33.168 38.718L32.8021 39.167V39.519L33.0216 39.9073L33.4852 40.2472L33.6926 40.1622L33.229 39.7131L33.1314 39.3369L33.6926 38.7665L33.717 38.5359L33.3632 38.4145L33.3022 38.2446L33.7292 37.8441L34.4733 37.6985L34.4977 37.5164L34.0219 37.4436ZM26.2148 37.1523L26.5319 37.7956L27.1419 38.4267L27.9714 38.8879L28.7033 39.1063L29.8378 39.1791L30.5453 39.082L31.3504 38.815L32.3019 38.2568L32.2531 38.0019L32.0213 37.9533L31.3992 38.2932L30.8381 38.4631L29.911 38.5844L29.2157 38.5602L28.4837 38.3903L27.6542 38.0019L27.2395 37.7106L26.5441 36.9824L26.3368 37.0067L26.2148 37.1523ZM26.9101 36.0358L26.7027 36.0115L26.3612 36.1571L25.8976 36.6426L25.6048 37.2737L25.5805 37.6499L25.7024 37.8441L25.861 37.7228L25.8854 37.4436L26.2026 36.8125L26.4344 36.5334L26.9589 36.1693L26.9101 36.0358ZM28.3861 35.5018L28.3617 35.8295L28.5081 36.2421L28.7277 36.4848L28.9717 36.5819L29.2766 36.5334L29.5206 36.3635L29.9232 36.7761L30.4477 36.8732L30.9357 36.679L31.2772 36.2178V36.0358L31.0942 35.963L30.5453 36.3756L30.1428 36.4484L29.9354 36.2906L29.667 35.8173H29.4596L29.2279 36.0843L28.9473 36.2057L28.6911 35.9508L28.5935 35.4532L28.3861 35.5018ZM25.0559 34.9435H24.7265V35.1498L24.9705 35.4775L25.0193 35.9751L24.8363 36.2057L24.4094 36.3513L24.5802 36.7397L24.4826 37.0674L24.08 37.3465L23.5555 37.4436L23.5799 37.6014L24.2508 37.6257L24.5924 37.48L24.8363 37.213L24.9583 36.6183L25.3243 36.2906L25.4463 35.8295L25.3487 35.3076L25.0559 34.9435ZM11.4788 22.3943L11.1616 22.5885L10.9665 22.8555L10.7469 23.3652L10.6981 23.8871L10.7957 24.1784L11.0152 24.409L10.9421 25.2221L11.0884 25.7561L11.3812 26.1445L11.7106 26.2416L12.0277 26.0838L11.6008 25.9139L11.491 25.7561L11.3934 24.9673L11.5886 24.142L11.2226 23.8871L11.4178 23.171L11.8082 22.722L11.7838 22.4671L11.4788 22.3943ZM8.83169 18.632L8.06317 18.7291L7.40444 19.1174L6.69692 19.9913L6.18458 21.1078L6.03819 21.6661L5.9894 22.8919L6.23337 23.9357L6.77011 24.7609L7.13607 25.0522L7.67281 25.2707L8.29495 25.2221L8.51452 24.9551L8.53892 24.5303L8.40473 24.4332L8.24615 24.6274L7.96558 24.676L7.41664 24.2755L7.00189 23.3774L6.9287 22.5157L7.31905 21.0107L8.08757 20.0034L8.57552 19.6636L9.00247 19.6879L9.649 20.234L9.94177 20.768L9.95396 21.0593H9.33183L8.77069 21.3263L8.47793 21.6904L8.38034 22.0059V22.6977L8.50232 23.2075L8.7463 23.79L9.16105 24.324L9.45382 24.4697L9.70999 24.3726V24.1662L9.44162 23.6929L9.22204 22.9647L9.17325 22.4671L9.27084 22.103L9.6612 21.921L10.1369 22.4064L10.4541 22.5035L10.6859 22.455L10.8811 22.188L10.8323 21.0107L10.4419 19.8942L9.6368 19.0204L8.83169 18.632ZM25.6292 17.7339L25.2389 18.1222L24.9949 18.8504L24.8729 20.8044L25.0193 21.9695L25.1901 22.5278L25.4585 22.9647L25.8854 23.0861L26.3002 22.722L26.5441 22.0666L26.7149 20.9258V20.2826L26.5929 20.1491L26.5197 19.0932L26.3246 18.365L25.983 17.8067L25.6292 17.7339ZM34.3147 16.9571L34.0219 17.1271L33.8024 17.6853V20.052L34.1439 21.4355L34.3879 21.7268L34.6929 21.7753L34.9368 21.5569L35.1564 20.9015L35.254 19.2145L35.1564 18.3407L34.9124 17.4912L34.6685 17.1028L34.3147 16.9571ZM12.5523 14.7483L12.4303 14.9182L12.4791 15.1245L13.3208 15.4158L13.5282 15.6707L13.6746 16.2047L13.6258 17.0664L12.9426 18.5106L12.8938 18.8626L13.0646 19.081H13.4916L13.7355 19.2024L14.0405 19.5544L14.2113 20.0641L14.0893 21.1442L13.6258 22.4793L13.7721 22.6977L14.2235 22.7705L14.6748 23.0254L14.9432 23.3895L15.1384 24.0206V24.6881L14.3577 26.6178L14.3821 27.0426L14.7114 27.2368L15.1872 26.9941H15.4434L16.1021 27.2368L16.4802 27.7587L16.773 29.3243L17.017 29.6641L17.1756 29.6884L17.5903 29.4456L17.6147 28.7539L17.8221 28.5475L18.2613 28.4019L19.2371 28.2805H19.8105L20.0545 28.3776L20.335 28.7053L20.6766 29.5427L20.9938 29.8097L21.4207 29.6884L21.6891 29.1908L22.4576 28.6446L22.9455 28.499L23.5921 28.6204L24.1166 29.0451L24.5558 30.0525L24.9705 30.4894L25.2999 30.3923L25.8732 29.7612L26.2392 29.5185L27.0443 29.3485L27.52 29.4456L28.1178 29.8461L28.5081 30.5986L28.6545 31.3511L28.5569 32.9652L28.7033 33.1109L28.8619 33.0623L29.0327 32.7953L29.2522 31.97L29.2279 30.9627L28.7887 29.7491L28.13 29.0694L27.3737 28.8024L26.6051 28.7781L25.7268 29.1422L25.1901 29.5549L24.6168 28.5111L24.1044 28.0985L23.5189 27.8558L22.4332 27.9286L21.7745 28.2684L21.3475 28.6082L20.762 27.8072L20.1033 27.4431L19.6275 27.3946L18.4808 27.5402L17.4805 27.8558L17.2244 27.2489L16.7364 26.6178L16.2241 26.3023L15.541 26.1202L15.9313 24.9066L15.8825 23.6322L15.4434 22.7099L14.9554 22.2972L14.5651 22.1152L14.8822 20.9501L14.931 19.9427L14.5895 19.0932L14.1991 18.6563L13.8575 18.4499L14.3699 16.9936L14.3943 16.1561L14.2723 15.6221L13.6868 14.8697L13.0524 14.6755L12.5523 14.7483ZM23.2017 10.8889L23.0553 10.719L22.7992 10.6947L22.3112 11.6535L21.7135 12.0783L21.3109 12.1268L20.8108 11.8355L20.4814 11.8113L19.9325 12.5394L19.3713 12.855L18.9932 12.8307L18.7736 12.6608L18.2491 11.8598L18.0905 11.8113L17.9685 11.9933L18.2369 12.6244L18.554 13.037L19.042 13.2798L19.6153 13.2312L20.1033 12.9885L20.6522 12.4545L21.1889 12.6244L21.6647 12.6487L22.3966 12.3817L23.0065 11.6777L23.2017 11.1437V10.8889ZM31.2406 10.4762L31.143 10.9131L31.1918 11.3379L31.509 11.7991L31.8262 11.9448L32.3019 11.8962L32.4605 12.4545L32.8753 12.7215L33.8145 12.77L34.0341 12.6487L33.717 12.4181L32.9362 12.1147L33.0582 11.3258L32.8387 11.1559L32.1311 11.52L31.7774 11.4957L31.57 11.1923L31.5456 10.5248L31.3992 10.4034L31.2406 10.4762ZM40.6702 0.936915L39.6943 0.572819L39.0112 0.5L37.5351 0.548546L35.3394 0.912642L33.2168 1.47092L31.2406 2.1263L28.0446 3.41277L25.9098 4.40796L24.7387 3.84968L22.9821 3.19431L21.5671 2.83021L19.8593 2.53894L17.4317 2.44185L14.6748 2.73312L13.333 3.04867L11.6008 3.63123L9.20985 4.79633L7.89239 5.67016L6.8921 6.47118L5.965 7.34501L4.57435 8.99558L3.81804 10.1607L3.08612 11.5685L2.57377 12.9035L2.11022 14.8454L1.98824 17.3576L2.15902 18.8383L2.40299 19.6515L2.23221 20.0398V20.4889L2.3542 20.9258L1.71987 21.4962L1.30511 22.0788L0.646384 23.3895L0.5 24.1177L0.524397 24.6153L0.695179 25.2343L0.524397 25.7197V26.3872L0.719576 28.4019L1.03674 29.9554L1.4027 30.6472L1.20752 31.3753L1.18313 32.1399L1.47589 33.208L2.03703 34.3245L2.74455 35.2226L3.42768 35.7688L3.2325 36.8853L3.2569 37.9655L3.54967 39.0578L3.76924 39.4461L4.47676 40.2229L5.52585 40.7326L5.9894 40.8054L7.27026 40.7326L8.13636 42.8929L8.7463 43.6939L9.13665 44.0338L9.74659 44.3978L10.6005 44.6649L11.6618 44.6406L12.6865 44.325L12.9914 45.2474L13.4306 45.83L13.7721 46.097L14.5529 46.4853L15.5775 46.7281H16.6388L17.4927 46.5339L17.9685 47.2863L18.3344 47.6747L18.7492 47.966L19.5055 48.2815L20.701 48.4515L22.0306 48.3544L22.9577 48.0631L23.4945 47.6019L23.9702 47.8932L24.8973 48.2573L25.9952 48.4757H26.6905L27.7152 48.3544L28.7399 48.0145L29.3498 47.6262L29.8744 47.1164L30.8503 47.3349H31.5456L32.2531 47.2135L33.1314 46.898L33.6926 46.5824L34.2049 46.1212L34.7416 45.393L35.1442 44.4949L35.7907 44.3736L36.5471 44.058L37.401 43.257L37.7913 42.6016L38.2305 41.3637L38.4012 40.5627L38.3768 39.6039L38.6208 39.2641L39.5967 38.3781L40.1823 37.4072L40.475 36.0965L40.3774 34.7493L40.8654 34.4459L41.5241 33.8391L42.0121 32.9167L42.0852 32.3705L41.9877 31.9094L41.7681 31.4482L41.2069 30.72L41.9633 29.9311L42.2072 29.4942L42.4024 28.766V28.3169L42.1584 27.4917L41.2313 26.3023L41.9389 25.5619L42.3292 24.9308L42.4756 24.4697V24.0692L42.1096 23.2196L41.4265 22.5399L40.3774 21.8846L39.3527 21.5083L38.8892 19.2388L37.9621 16.5202L36.4983 13.4618L34.6929 10.5248L35.7053 9.71163L36.4861 9.56599L36.7056 9.67522L36.7788 9.91795L36.7056 11.5321L36.9252 11.7263L37.5961 11.9205L37.8767 12.2724L37.7791 13.037L37.4863 13.9837L37.2424 14.3963L37.3888 14.5905L37.5717 14.6391L37.8401 14.5905L38.1085 14.3721L38.5476 12.8914L38.4988 12.1511L38.1329 11.5928L37.3522 11.2408L37.4498 10.4641L37.3766 9.65095L37.0594 9.11694L36.6446 8.94703L38.8892 6.82314L40.0603 5.4153L40.7678 4.34728L41.3045 3.1579L41.4509 2.24766L41.1825 1.42238L40.6702 0.936915ZM10.4541 4.92984L12.2351 4.17737L13.8209 3.69191L16.7486 3.23072L19.5665 3.30354L21.3719 3.59482L23.2749 4.1531L24.8973 4.90556L20.0179 7.53919L15.8215 10.2335L13.7721 11.7142L11.5276 13.5104L8.00218 16.8115L7.52643 16.8843L6.8677 17.1513L6.40415 17.4426L5.84301 17.9766L5.35507 18.632L4.62315 20.1612L4.23279 22.1273L4.25719 23.5958L4.42797 24.6396L4.81833 25.7319L5.47705 26.7513L6.40415 27.5038L7.35565 27.8436L8.49012 27.7951L9.17325 27.5038L9.68559 27.1397L10.6615 26.096L10.5883 25.7925L10.1979 25.4527L10.0394 25.477L9.79538 25.6469L9.17325 26.4236L8.6853 26.7635L7.8314 27.0547H7.33125L6.79451 26.8848L6.40415 26.6421L5.87961 26.0717L5.53805 25.5134L5.24528 24.6881L5.00131 23.4016L5.12329 21.6904L5.34287 20.8166L5.78202 19.7243L6.34316 18.8747L6.81891 18.3771L7.74601 17.8188L8.66091 17.7217L9.27084 17.8674L9.70999 18.1344L10.4785 18.8869L10.7347 18.9111L10.7103 18.4863L10.3199 17.8552L9.80758 17.3455L8.7097 16.7872L9.89297 15.6343L11.796 14.3235L14.9432 12.5759L18.554 11.0466L22.2624 9.95436L25.7756 9.37181L28.2276 9.27472L29.8378 9.39608L32.0579 9.93009L33.5462 10.6826L35.2662 13.0735L36.9984 16.3746L38.2915 19.7485L38.877 22.1516L38.999 23.2196V24.4454L38.877 25.1736L38.5964 25.9625L37.4741 24.8944L36.5714 24.3119L35.2296 23.7536L34.1317 23.5109L32.7533 23.4381L31.0211 23.7779L29.9964 24.2391L29.1913 24.8702L29.1669 25.0522L29.3498 25.125L30.8015 24.4939L32.1677 24.2269L34.0585 24.324L35.62 24.8338L37.157 25.8047L37.9011 26.545L38.7794 28.0014L39.121 29.4578V30.7078L38.755 31.9943L37.9499 33.3051L37.3766 33.8755L36.7422 34.3124L35.9859 34.6765L34.5221 35.0891L33.5096 35.1134L32.3629 34.9678L31.5578 34.7493L30.3501 34.1182L29.9232 34.0454L29.5084 34.5551L29.7036 34.9799L30.4599 35.4411L31.4114 35.8295L32.5825 36.0965L33.8633 36.1693L35.4248 35.9994L36.3031 35.7324L37.279 35.2469L38.2793 34.4944L38.9624 33.7662L39.5723 32.8439L39.9871 31.703L40.1823 30.5379V29.6034L39.8651 28.0985L39.2552 26.8363L38.7428 26.1445L39.0356 25.9503L39.2552 25.5862L39.4991 24.591L39.5723 23.6808L39.4259 22.0545L39.8407 22.1394L40.9142 22.7705L41.4143 23.1953L41.7559 23.6565L41.8779 24.0449L41.7803 24.6153L41.3655 25.2221L40.658 25.9382L40.5604 26.1809L40.7068 26.6057L41.5607 27.5645L41.8047 28.2441V28.766L41.6095 29.3243L40.536 30.5743L40.6092 30.9263L41.2191 31.6181L41.4143 31.9822L41.4875 32.5526L41.3655 32.9652L40.9996 33.5478L40.6702 33.8755L39.9505 34.2881L39.8041 34.5066L39.9505 35.9994L39.7797 36.9703L39.5845 37.4558L39.1698 38.0869L38.3647 38.7544L37.9255 39.2884V40.1986L37.7791 41.0239L37.4376 42.1405L37.1692 42.6502L36.8276 43.1114L36.2787 43.5847L35.5468 43.9003L34.7051 44.0702L34.1683 45.2474L33.4974 45.9635L33.0826 46.2547L32.3019 46.5703L31.3992 46.7402L30.4843 46.6917L29.911 46.4732L29.728 46.4975L28.4227 47.4684L27.8128 47.6869L26.8857 47.8325L25.2145 47.6626L24.385 47.4198L23.4213 46.9587L23.1651 47.0072L22.5674 47.5412L22.055 47.7111L20.579 47.8082L19.7251 47.6626L19.1152 47.4198L18.7736 47.1771L18.3954 46.7766L18.1027 46.279L17.6879 45.9635L17.261 45.9392L16.3949 46.1334L15.0164 45.9392L14.3577 45.6722L13.6136 44.9804L13.2964 44.3493L13.2232 43.8032L12.9548 43.609L11.3934 44.0459L10.5273 43.9731L9.81978 43.6575L9.17325 43.1114L8.58771 42.2618L7.92899 40.6234L7.66062 40.2107L7.41664 40.1137L6.06259 40.1379L5.50145 39.9923L4.69634 39.4583L4.19619 38.718L3.97662 38.1111L3.87903 37.2858L3.92782 36.2057L4.123 35.5625L4.07421 35.2833L3.52527 34.9192L2.85434 34.2032L2.26881 33.2565L1.87845 32.1642L1.82965 31.4239L2.09802 30.3073L1.75646 30.0039L1.53689 29.3485L1.19532 27.2611L1.07334 25.8775L1.29291 25.4649L1.12213 24.8095L1.09773 23.8992L1.3905 23.0497L2.24441 21.7632L3.58626 20.6831L3.56186 20.5253L3.30569 20.4525L2.62257 20.768L2.56157 20.1369L2.65916 19.8699L2.98853 19.7121L3.2325 19.8335L3.46428 19.785L3.73265 19.3116L3.98882 19.1053L4.47676 19.3723L4.70854 19.2509L4.65974 18.6077L4.57435 18.5592L4.46457 18.899L4.22059 18.7291L3.86683 18.7048L3.42768 19.0204L3.1959 19.4087L2.63477 19.4451L2.48838 16.8358L2.78115 14.5056L3.2203 12.9764L3.87903 11.3986L4.46457 10.3306L5.41606 8.99558L6.14798 8.14602L7.69721 6.70177L8.86828 5.85221L10.4541 4.92984ZM40.6824 1.93211L40.7556 2.67244L40.536 3.35209L39.8773 4.46865L39.3161 5.14829L36.913 7.53919L35.4004 8.84994L34.0097 9.89368L32.4727 9.18976L31.1796 8.80139L28.7887 8.53439L26.288 8.60721L26.349 8.31593L26.8125 7.7091L27.2639 7.28432L27.6542 7.06587L27.8616 7.09014L28.0446 7.47851L28.2154 7.59987L29.5572 7.18723L30.0818 7.16296L30.2159 7.27219L30.2891 7.91542L30.6185 7.96397L30.7405 7.12655L30.4477 6.76245L29.606 6.71391L28.4837 7.02946L28.2032 6.71391L27.6054 6.59254L27.0443 6.85954L26.5563 7.29646L26.0684 7.92756L25.6902 8.65575L23.3603 8.99558L20.0179 9.86941L16.773 11.0831L13.8331 12.503L15.3336 11.3865L17.9441 9.66308L21.8477 7.38142L25.5805 5.4153L29.8012 3.522L34.4855 1.87143L37.4376 1.24033L38.694 1.16751L39.7675 1.28887L40.4018 1.58015L40.6824 1.93211Z" fill="#6A3B2A" stroke="#6A3B2A" stroke-linejoin="round"/>
</svg>
